# xmcd
#
# Track frame offsets:
#	150
#	10231
#	22329
#	35212
#	47435
#	60580
#	73868
#	86302
#	97548
#	110459
#	122914
#	135399
#	148820
#	161884
#	175517
#	202859
#	215356
#	225516
#
# Disc length: 3203 seconds
#
# Revision: 1
# Processed by: cddbd v1.5.2PL0 Copyright (c) Steve Scherf et al.
# Submitted via: audiograbber 1.83.01
#
DISCID=f00c8112
DTITLE=Various Artist - Classic Blues Vol. 05
DYEAR=2000
DGENRE=Blues
TTITLE0=Robert Johnson - Little Queen Of Spades
TTITLE1=Champion Jack Dupree - Dupree Shake Dance
TTITLE2=Leadbelly - Good Morning Blues
TTITLE3=Brownie Mc Ghee - Dealin' With The Devil
TTITLE4=Big Joe Turner - Piney Brown Blues
TTITLE5=Walter Brown - New Confessin' The Blues
TTITLE6=Big Joe Williams - Please Don't Go
TTITLE7=Robert Johnson - Dead Shrimp Blues
TTITLE8=Mississippi John Hurt - Farther Along
TTITLE9=Big Bill Broonzy - I Can't Be Satisfied
TTITLE10=Yank Rachell - Up North Blues
TTITLE11=Blind Boy Fuller - My Brownskin Sugar Plum
TTITLE12=Tampa Red - Denver Blues
TTITLE13=Blind Willie Mc Tell - Georgia Rag
TTITLE14=Clarence 'Gatemouth' Brown - Frosty
TTITLE15=Champion Jack Dupree - Wharehouse Man Blues
TTITLE16=Robert Johnson - Honeymoon Blues
TTITLE17=Barbeque Bob - Motherless Child Blues
EXTD=CLB 47505 Digimode Entertainment Ltd
EXTT0=
EXTT1=
EXTT2=
EXTT3=
EXTT4=
EXTT5=
EXTT6=
EXTT7=
EXTT8=
EXTT9=
EXTT10=
EXTT11=
EXTT12=
EXTT13=
EXTT14=
EXTT15=
EXTT16=
EXTT17=
PLAYORDER=
